<svg xmlns="http://www.w3.org/2000/svg" viewBox="0 0 300 160" width="300" height="160">
    <rect x="20" y="20" width="50" height="12" fill="#0f2027" />
    <rect x="39" y="20" width="12" height="80" fill="#0f2027" />
    
    <rect x="90" y="20" width="12" height="80" fill="#0f2027" />
    <path d="M 90 26 L 120 26 A 14 14 0 0 1 120 54 L 90 54" fill="none" stroke="#0f2027" stroke-width="12" />
    <path d="M 112 52 L 134 98" fill="none" stroke="#0f2027" stroke-width="12" />
    
    <path d="M 166 20 L 166 75 A 19 19 0 0 0 204 75 L 204 20" fill="none" stroke="#0f2027" stroke-width="12" />
    
    <rect x="230" y="20" width="12" height="80" fill="#0f2027" />
    <rect x="230" y="20" width="40" height="12" fill="#0f2027" />
    <rect x="230" y="88" width="40" height="12" fill="#0f2027" />
    
    <rect x="230" y="54" width="24" height="12" fill="#60a5fa" />
    <circle cx="262" cy="60" r="10" fill="#60a5fa" />

    <text x="154" y="145" font-family="'Segoe UI', Helvetica, sans-serif" font-size="22" font-weight="bold" letter-spacing="14" fill="#0f2027" text-anchor="middle">CONTROL</text>
</svg>
