<svg xmlns="http://www.w3.org/2000/svg" viewBox="0 0 800 800" width="100%" height="100%">
  <style>
    .num { font-family: 'Arial', sans-serif; font-size: 44px; font-weight: bold; fill: #ffffff; text-anchor: middle; }
    .lbl { font-family: 'Arial', sans-serif; font-size: 18px; font-weight: bold; fill: #ffffff; text-anchor: middle; letter-spacing: 1px; }
  </style>

  <rect width="800" height="800" fill="#F4F7F9" />

  <g transform="translate(400, 400)">
    
    <g transform="rotate(0)">
      <path d="M 0 -150 L 0 -350 A 350 350 0 0 1 247.49 -247.49 L 106.07 -106.07 A 150 150 0 0 0 0 -150 Z" fill="#69A2B0" stroke="#F4F7F9" stroke-width="8"/>
    </g>
    
    <g transform="rotate(45)">
      <path d="M 0 -150 L 0 -350 A 350 350 0 0 1 247.49 -247.49 L 106.07 -106.07 A 150 150 0 0 0 0 -150 Z" fill="#65B4AF" stroke="#F4F7F9" stroke-width="8"/>
    </g>

    <g transform="rotate(90)">
      <path d="M 0 -150 L 0 -350 A 350 350 0 0 1 247.49 -247.49 L 106.07 -106.07 A 150 150 0 0 0 0 -150 Z" fill="#65C2A5" stroke="#F4F7F9" stroke-width="8"/>
    </g>

    <g transform="rotate(135)">
      <path d="M 0 -150 L 0 -350 A 350 350 0 0 1 247.49 -247.49 L 106.07 -106.07 A 150 150 0 0 0 0 -150 Z" fill="#5AA69C" stroke="#F4F7F9" stroke-width="8"/>
    </g>

    <g transform="rotate(180)">
      <path d="M 0 -150 L 0 -350 A 350 350 0 0 1 247.49 -247.49 L 106.07 -106.07 A 150 150 0 0 0 0 -150 Z" fill="#52949D" stroke="#F4F7F9" stroke-width="8"/>
    </g>

    <g transform="rotate(225)">
      <path d="M 0 -150 L 0 -350 A 350 350 0 0 1 247.49 -247.49 L 106.07 -106.07 A 150 150 0 0 0 0 -150 Z" fill="#4B819D" stroke="#F4F7F9" stroke-width="8"/>
    </g>

    <g transform="rotate(270)">
      <path d="M 0 -150 L 0 -350 A 350 350 0 0 1 247.49 -247.49 L 106.07 -106.07 A 150 150 0 0 0 0 -150 Z" fill="#5682B6" stroke="#F4F7F9" stroke-width="8"/>
    </g>

    <g transform="rotate(315)">
      <path d="M 0 -150 L 0 -350 A 350 350 0 0 1 247.49 -247.49 L 106.07 -106.07 A 150 150 0 0 0 0 -150 Z" fill="#5F93BD" stroke="#F4F7F9" stroke-width="8"/>
    </g>
  </g>

  <circle cx="400" cy="400" r="146" fill="#F4F7F9" />
  <circle cx="400" cy="400" r="115" fill="none" stroke="#69A2B0" stroke-width="8" />

  <text x="496" y="155" class="num">01</text>
  <text x="496" y="185" class="lbl">IDENTIFY</text>

  <text x="631" y="290" class="num">02</text>
  <text x="631" y="320" class="lbl">SPECIFY</text>

  <text x="631" y="481" class="num">03</text>
  <text x="631" y="511" class="lbl">SIMPLIFY</text>

  <text x="496" y="617" class="num">04</text>
  <text x="496" y="647" class="lbl">STRUCTIFY</text>

  <text x="304" y="617" class="num">05</text>
  <text x="304" y="647" class="lbl">RATIFY</text>

  <text x="169" y="481" class="num">06</text>
  <text x="169" y="511" class="lbl">TESTIFY</text>

  <text x="169" y="290" class="num">07</text>
  <text x="169" y="320" class="lbl">REPEATIFY</text>

  <text x="304" y="155" class="num">08</text>
  <text x="304" y="185" class="lbl">SOLIDIFY</text>
</svg>
